<svg width="235" height="115" viewBox="0 0 235 115" fill="none" xmlns="http://www.w3.org/2000/svg">
<path d="M120.441 79.2889L120.44 79.2801C118.651 79.2205 116.795 79.2266 114.855 79.3242C111.097 79.5127 107.466 79.948 103.982 80.5796L104.201 80.0986C108.224 70.9531 110.571 62.9154 110.571 60.6058C110.571 59.5898 109.984 59.2206 109.314 59.2206C108.643 59.2206 107.889 59.4974 107.47 59.9597C104.034 63.0077 97.9979 69.5672 95.3997 69.5672C94.2261 69.5672 93.6399 68.9203 93.6399 67.7192C93.6399 66.2412 95.651 61.1603 95.651 59.4974C95.651 56.7256 93.8075 55.2481 91.5443 55.2481C89.0903 55.2481 85.8304 56.8246 83.0451 59.1493C82.9798 59.1716 82.9144 59.2164 82.827 59.3128C75.1159 66.6107 65.0573 70.9531 58.3513 70.9531C53.9087 70.9531 50.8913 69.105 50.8913 64.9479C50.8913 63.7466 51.1426 62.5461 51.6459 61.5298C53.6576 61.9916 55.7531 62.1761 57.765 62.1761C63.5485 62.1761 68.2423 60.2366 68.2423 56.4485C68.2423 54.4165 66.231 53.4922 63.3812 53.4922C58.9381 53.4922 52.5681 55.7093 48.712 59.3127L46.8678 58.6658C46.449 58.4813 46.1133 58.389 45.8621 58.389C45.4426 58.389 45.1914 58.5734 45.1914 58.8505C45.1914 58.943 45.2751 59.1283 45.4426 59.2204C46.1971 59.6818 46.9512 60.0518 47.79 60.3288C46.3653 61.9916 45.4426 63.9314 45.4426 65.964C45.4426 70.0294 49.9693 73.5397 56.9262 73.5397C63.8053 73.5397 73.0037 70.1854 82.8028 60.987C85.7218 58.7068 88.2293 57.5575 89.6998 57.5575C90.7055 57.5575 91.2084 58.0191 91.2084 58.943C91.2084 61.7147 87.0173 64.9479 87.0173 69.2896C87.0173 71.4145 89.0293 72.4306 90.7054 72.4306C96.9921 72.4306 103.698 64.6703 104.62 64.6703C104.704 64.6703 104.704 64.7627 104.704 64.9479C104.201 68.6427 102.273 74.7401 99.339 81.392C77.5457 87.8586 63.5471 101.993 63.5471 109.568C63.5471 112.617 65.8103 114.557 70.5883 114.557C84.7364 114.557 96.4026 97.0726 103.378 81.9042C106.895 81.2099 110.625 80.7383 114.57 80.5409C116.618 80.4378 118.57 80.444 120.431 80.5444C122.759 80.8083 123.57 81.6684 124.381 82.8558C125.972 85.1833 125.275 88.7932 121.58 91.8614C121.441 91.9763 121.427 92.0835 121.49 92.1758C121.636 92.3903 122.402 92.4269 123.291 91.6885C127.209 88.4361 127.779 84.5545 126.041 82.013C124.964 80.437 123.002 79.3863 120.441 79.2886L120.441 79.2889ZM60.7822 54.9705C62.5428 54.9705 63.2973 55.8028 63.2973 56.7264C63.2973 58.4814 60.698 60.9756 56.9262 60.9756C55.7531 60.9756 54.2443 60.7912 52.2325 60.3288C54.3282 57.0031 58.2673 54.9703 60.7822 54.9703V54.9705ZM72.4327 113.079C69.7502 113.079 68.4929 111.693 68.4929 109.476C68.4929 103.009 79.2219 89.5216 98.5846 82.9626C92.2148 97.0971 81.8207 113.079 72.4327 113.079Z" fill="#091A21"/>
<path d="M26.2492 49.794C26.2492 48.4083 30.4396 46.1908 36.1402 44.0665C46.1988 40.4632 70.7582 31.3178 70.7582 12.6564C70.7582 5.54305 65.0583 0 57.2628 0C31.0266 0 16.2745 30.8557 10.072 50.81C8.31144 56.6305 2.94644 69.7483 1.18662 72.3347C0.935153 72.7046 0.851562 72.9816 0.851562 73.2587C0.851562 73.6285 1.01888 73.813 1.52208 73.813C5.88027 73.813 12.7539 60.5099 17.4474 46.3761C25.1592 23.1879 39.6602 1.4777 55.5029 1.4777C62.0409 1.4777 65.1421 6.28206 65.1421 12.2867C65.1421 35.0129 39.6603 38.6154 27.0873 46.4687C25.1593 47.6693 24.5729 49.055 24.5729 50.2557C24.5729 53.3967 31.0266 55.2446 31.0266 62.3581C31.0266 67.7157 25.8297 72.9817 20.2143 72.9817C18.4538 72.9817 16.6933 72.5202 15.0169 71.319C14.9331 71.2266 14.8495 71.2266 14.7656 71.2266C14.43 71.2266 14.2625 71.596 14.2625 72.0582C14.2625 74.7369 20.6328 75.0139 21.9742 75.0139C30.6914 75.0139 36.224 68.9171 36.224 63.1889C36.224 55.4295 26.2492 52.5654 26.2492 49.7943V49.794Z" fill="#091A21"/>
<path d="M233.646 59.1207C233.478 59.1207 233.394 59.2129 233.226 59.3051C230.963 61.3371 221.994 69.2828 216.965 69.2828C214.953 69.2828 214.031 66.9732 214.031 63.4622C214.031 62.7232 214.031 61.984 214.115 61.1527C224.844 50.4367 233.31 35.0087 233.31 28.4496C233.31 26.4169 232.555 25.3086 230.796 25.3086C223.419 25.3086 215.121 41.9371 211.852 55.3327C199.094 55.4047 190.882 59.9226 187.892 64.2751C184.483 66.8128 180.455 69.2827 177.651 69.2827C174.633 69.2827 178.992 59.582 172.035 59.582C167.425 59.582 161.557 64.8482 160.552 66.2339C160.384 66.5109 160.217 66.6038 160.132 66.6038C160.049 66.6038 159.881 66.5109 159.797 66.4185C160.887 63.8319 161.306 61.6147 161.306 59.9519C161.306 56.6263 159.63 54.9636 157.031 54.9636C154.418 54.9636 150.929 56.6344 147.34 60.0524C145.425 61.4822 143.299 62.261 141.345 62.261C141.049 62.261 140.759 62.2378 140.473 62.2032C140.664 61.5595 140.798 60.8574 140.822 60.1065C140.928 56.6804 138.962 54.5664 138.962 54.5664C138.962 54.5664 138.561 54.0751 137.85 54.4442C137.819 54.4611 137.792 54.481 137.763 54.5006C136.593 55.104 134.636 57.0785 134.636 58.0115C134.636 58.2892 134.72 58.4739 134.804 58.843C135.056 59.5821 135.223 61.1527 135.223 62.5384C135.223 66.3262 131.619 71.3147 125.165 71.3147C121.728 71.3147 119.633 68.7281 119.633 65.6793C119.633 61.1526 124.159 55.6103 135.391 55.2402C135.81 55.2402 136.229 54.8711 136.229 54.5934C136.229 54.4088 136.062 54.2241 135.559 54.1318C135.391 54.1318 135.056 54.0397 134.636 54.0397C121.98 54.0397 114.688 61.3368 114.688 66.7882C114.688 70.1139 117.37 72.7928 123.237 72.7928C130.242 72.7928 136.241 69.2131 139.02 65.1743C139.122 65.0285 139.229 64.8703 139.341 64.6912C139.385 64.6192 139.429 64.5473 139.47 64.4753C139.474 64.4692 139.478 64.4615 139.481 64.4556C139.628 64.4623 139.773 64.4786 139.92 64.4786C143.165 64.4786 146.252 62.9178 148.879 60.3882C150.847 58.7071 153.44 56.7187 155.271 56.7187C156.444 56.7187 157.283 57.6423 157.283 60.1366C157.283 62.7232 155.606 66.6961 154.432 69.7442C154.265 70.2064 154.181 70.4834 154.181 70.7602C154.181 71.4071 154.768 71.6847 155.522 71.6847C156.864 71.6847 158.792 70.8531 159.21 70.2065C162.898 63.4623 167.928 61.8919 169.018 61.8919C172.454 61.8919 170.024 72.1462 174.633 72.1462C177.91 72.1462 182.527 69.6928 186.755 66.7315C186.669 67.0981 186.622 67.458 186.622 67.8048C186.622 70.3911 188.969 72.3308 193.747 72.3308C199.111 72.3308 204.895 69.2828 210.343 64.6635V65.4949C210.343 69.5597 211.433 72.1462 213.947 72.1462C219.563 72.1462 229.119 64.9412 233.897 60.3213C234.064 60.1367 234.148 59.8597 234.148 59.6744C234.148 59.3051 233.897 59.1207 233.646 59.1207H233.646ZM230.042 26.4169C230.88 26.4169 231.299 27.0647 231.299 28.2651C231.299 33.3456 223.838 47.7572 214.451 58.3816C216.379 45.7252 224.257 26.4169 230.042 26.4169ZM210.511 62.6307C205.398 67.5275 199.95 70.9455 195.088 70.9455C193.244 70.9455 192.154 69.5597 192.154 67.6199C192.154 63.3699 197.518 56.534 211.601 56.2564C211.098 58.566 210.679 60.6912 210.511 62.6307H210.511Z" fill="#091A21"/>
<path fill-rule="evenodd" clip-rule="evenodd" d="M96.7459 36.2697C97.5297 35.3948 97.9213 34.0244 97.9213 32.1608L97.9214 32.1607V26.7053C97.9214 24.8416 97.5195 23.4661 96.7152 22.5796C95.9111 21.6932 94.6628 21.25 92.9717 21.25H79.3594V45.7991H83.0719V37.616H88.7954L93.1262 45.7991H97.4264L93.0955 37.616C94.7451 37.5936 95.9619 37.1452 96.7459 36.2697ZM94.2094 26.7055V32.1608C94.2094 33.252 93.7963 33.7972 92.9716 33.7972H83.0718V25.0686H92.9716C93.7961 25.0686 94.2094 25.6139 94.2094 26.7055ZM121.555 45.7991L114.223 21.25H108.376L101.044 45.7991H104.942L106.816 39.5253H115.752L117.626 45.7991H121.555ZM114.612 35.707H107.956H107.956L111.133 25.0702H111.434L114.612 35.707ZM140.678 21.25H147.268V45.7991H143.555V25.0686L143.212 25.057L138.789 40.3321L133.411 40.3424L129.02 25.0672H128.706V45.7991H124.993V21.25H131.552L135.975 36.5249L136.286 36.5255L140.678 21.25ZM166.786 29.433H170.498V26.705C170.498 24.8414 170.096 23.4658 169.292 22.5793C168.488 21.6932 167.239 21.25 165.548 21.25H156.886C155.195 21.25 153.947 21.6931 153.142 22.5793C152.338 23.4656 151.936 24.8414 151.936 26.705C151.936 28.2967 152.111 29.5406 152.462 30.4386C152.812 31.3373 153.354 32.041 154.086 32.5527C154.818 33.0637 155.958 33.6039 157.505 34.1721L164.929 36.8998C165.301 37.0361 165.605 37.1841 165.842 37.343C166.079 37.5026 166.26 37.6559 166.384 37.8032C166.507 37.9518 166.6 38.1731 166.662 38.4684C166.724 38.7643 166.76 39.0256 166.77 39.253C166.781 39.4804 166.786 39.8442 166.786 40.3436C166.786 41.4349 166.373 41.9807 165.549 41.9807H156.886C156.061 41.9807 155.648 41.4351 155.648 40.3436V37.6159H151.936V40.3436C151.936 42.2079 152.338 43.5828 153.143 44.4693C153.947 45.3558 155.195 45.7997 156.886 45.7997H165.549C167.239 45.7997 168.488 45.356 169.292 44.4693C170.096 43.583 170.498 42.2079 170.498 40.3436C170.498 38.7521 170.323 37.5076 169.972 36.6094C169.621 35.711 169.08 35.0066 168.348 34.4948C167.616 33.9837 166.477 33.443 164.93 32.8747L157.506 30.147C157.134 30.0107 156.829 29.8633 156.592 29.7045C156.355 29.5457 156.175 29.3915 156.051 29.2436C155.927 29.0964 155.834 28.8745 155.772 28.5798C155.71 28.2839 155.674 28.0226 155.664 27.7952C155.654 27.5685 155.648 27.2049 155.648 26.7046C155.648 25.6139 156.061 25.0689 156.886 25.0689H165.548C166.373 25.0689 166.786 25.6137 166.786 26.705V29.433ZM137.874 96.0843L142.839 81.3516H145.226L150.191 96.0843H148.09L146.983 92.7169H141.082L139.974 96.0843H137.874H137.874ZM141.731 90.7174H146.333L144.08 83.8774H143.984L141.731 90.7174ZM156.036 81.3516V96.0843H164.629V94.0849H158.041V81.3516H156.036ZM170.948 96.0843V81.3516H174.003L177.784 92.8223H177.861L181.642 81.3516H184.697V96.0843H182.692V84.1931H182.597L178.682 96.0843H176.963L173.049 84.1931H172.953V96.0843H170.948ZM195.509 81.3516L190.543 96.0843H190.544H192.644L193.752 92.7169H199.652L200.76 96.0843H202.861L197.896 81.3516H195.509ZM199.003 90.7174H194.401L196.654 83.8774H196.75L199.003 90.7174ZM211.758 96.0843V83.3513H207.557V81.3516H217.964V83.3513H213.763V96.0843H211.758ZM227.341 90.6123V96.0843H229.346V90.6123L234.025 81.3516H231.924L228.391 88.4024H228.296L224.763 81.3516H222.662L227.341 90.6123Z" fill="#AF9475"/>
</svg>
