<svg width="426" height="210" viewBox="0 0 426 210" fill="none" xmlns="http://www.w3.org/2000/svg">
<path d="M218.371 144.781L218.369 144.765C215.102 144.656 211.714 144.667 208.172 144.845C201.309 145.189 194.679 145.984 188.317 147.138L188.716 146.259C196.064 129.56 200.349 114.883 200.349 110.665C200.349 108.81 199.277 108.136 198.053 108.136C196.829 108.136 195.451 108.641 194.686 109.486C188.411 115.051 177.39 127.029 172.646 127.029C170.503 127.029 169.432 125.848 169.432 123.654C169.432 120.956 173.104 111.678 173.104 108.641C173.104 103.58 169.738 100.882 165.606 100.882C161.125 100.882 155.172 103.761 150.086 108.006C149.967 108.046 149.847 108.128 149.688 108.304C135.607 121.63 117.24 129.56 104.995 129.56C96.8828 129.56 91.3729 126.185 91.3729 118.594C91.3729 116.4 91.8319 114.208 92.7507 112.353C96.4241 113.196 100.251 113.533 103.924 113.533C114.485 113.533 123.056 109.991 123.056 103.074C123.056 99.3636 119.383 97.6758 114.179 97.6758C106.066 97.6758 94.4348 101.724 87.3935 108.304L84.0259 107.123C83.2612 106.786 82.6481 106.617 82.1895 106.617C81.4235 106.617 80.9648 106.954 80.9648 107.46C80.9648 107.629 81.1177 107.967 81.4235 108.136C82.8013 108.978 84.1783 109.654 85.71 110.16C83.1083 113.196 81.4235 116.738 81.4235 120.449C81.4235 127.873 89.6894 134.283 102.393 134.283C114.954 134.283 131.75 128.158 149.643 111.361C154.974 107.198 159.552 105.099 162.237 105.099C164.074 105.099 164.992 105.942 164.992 107.629C164.992 112.69 157.339 118.594 157.339 126.522C157.339 130.402 161.013 132.258 164.074 132.258C175.553 132.258 187.799 118.087 189.482 118.087C189.635 118.087 189.635 118.256 189.635 118.594C188.716 125.341 185.196 136.475 179.839 148.621C140.044 160.429 114.482 186.238 114.482 200.071C114.482 205.638 118.615 209.18 127.34 209.18C153.174 209.18 174.477 177.254 187.214 149.556C193.636 148.289 200.448 147.427 207.651 147.067C211.39 146.879 214.955 146.89 218.352 147.073C222.604 147.555 224.084 149.126 225.566 151.294C228.47 155.544 227.199 162.136 220.45 167.738C220.196 167.948 220.172 168.144 220.286 168.312C220.554 168.704 221.952 168.771 223.575 167.422C230.729 161.484 231.77 154.396 228.597 149.755C226.63 146.877 223.048 144.959 218.37 144.78L218.371 144.781ZM109.434 100.375C112.649 100.375 114.026 101.895 114.026 103.581C114.026 106.786 109.28 111.34 102.393 111.34C100.251 111.34 97.4956 111.004 93.8219 110.16C97.6487 104.087 104.842 100.375 109.434 100.375V100.375ZM130.708 206.482C125.809 206.482 123.514 203.951 123.514 199.903C123.514 188.094 143.105 163.466 178.461 151.489C166.83 177.299 147.85 206.482 130.708 206.482Z" fill="#F4F5F9"/>
<path d="M46.3743 90.9242C46.3743 88.3938 54.0261 84.3447 64.4354 80.4658C82.8023 73.8861 127.648 57.1866 127.648 23.1107C127.648 10.1217 117.24 0 103.005 0C55.0978 0 28.1605 56.3427 16.8346 92.7794C13.6198 103.408 3.82331 127.361 0.609856 132.084C0.150683 132.759 -0.00195312 133.265 -0.00195312 133.771C-0.00195312 134.446 0.303572 134.783 1.22242 134.783C9.1805 134.783 21.7318 110.492 30.3022 84.6831C44.3839 42.3413 70.8628 2.69829 99.7917 2.69829C111.73 2.69829 117.393 11.4711 117.393 22.4355C117.393 63.9337 70.8631 70.5121 47.9047 84.8522C44.3842 87.0444 43.3135 89.5748 43.3135 91.7673C43.3135 97.5028 55.0978 100.877 55.0978 113.866C55.0978 123.649 45.6083 133.265 35.3546 133.265C32.1399 133.265 28.9252 132.422 25.8641 130.229C25.711 130.06 25.5583 130.06 25.4052 130.06C24.7924 130.06 24.4866 130.735 24.4866 131.579C24.4866 136.47 36.1188 136.976 38.5681 136.976C54.4857 136.976 64.5883 125.843 64.5883 115.383C64.5883 101.215 46.3743 95.9849 46.3743 90.9247V90.9242Z" fill="#F4F5F9"/>
<path d="M425.082 107.94C424.775 107.94 424.622 108.109 424.316 108.277C420.184 111.988 403.806 126.496 394.624 126.496C390.949 126.496 389.265 122.279 389.265 115.868C389.265 114.519 389.265 113.169 389.419 111.651C409.01 92.0832 424.469 63.9116 424.469 51.9348C424.469 48.2229 423.091 46.1992 419.878 46.1992C406.408 46.1992 391.256 76.5631 385.286 101.023C361.99 101.155 346.995 109.405 341.534 117.352C335.31 121.986 327.955 126.496 322.835 126.496C317.325 126.496 325.284 108.783 312.581 108.783C304.162 108.783 293.448 118.399 291.612 120.929C291.306 121.435 291 121.605 290.846 121.605C290.693 121.605 290.387 121.435 290.234 121.266C292.223 116.543 292.989 112.495 292.989 109.458C292.989 103.386 289.928 100.349 285.183 100.349C280.411 100.349 274.041 103.4 267.487 109.642C263.989 112.252 260.107 113.675 256.54 113.675C255.999 113.675 255.47 113.632 254.947 113.569C255.297 112.394 255.542 111.112 255.585 109.741C255.779 103.484 252.189 99.6241 252.189 99.6241C252.189 99.6241 251.456 98.727 250.158 99.4011C250.101 99.432 250.052 99.4682 250 99.5041C247.863 100.606 244.29 104.211 244.29 105.915C244.29 106.422 244.443 106.759 244.597 107.433C245.056 108.783 245.362 111.651 245.362 114.181C245.362 121.098 238.78 130.207 226.996 130.207C220.719 130.207 216.894 125.484 216.894 119.916C216.894 111.651 225.158 101.53 245.669 100.855C246.433 100.855 247.199 100.181 247.199 99.6734C247.199 99.3364 246.893 98.9991 245.975 98.8306C245.669 98.8306 245.056 98.6624 244.29 98.6624C221.179 98.6624 207.863 111.987 207.863 121.941C207.863 128.014 212.762 132.906 223.474 132.906C236.266 132.906 247.219 126.369 252.294 118.994C252.48 118.728 252.676 118.439 252.88 118.112C252.962 117.981 253.041 117.849 253.117 117.718C253.124 117.707 253.131 117.693 253.136 117.682C253.404 117.694 253.67 117.724 253.938 117.724C259.864 117.724 265.501 114.874 270.298 110.255C273.892 107.185 278.626 103.554 281.969 103.554C284.112 103.554 285.642 105.241 285.642 109.795C285.642 114.518 282.581 121.773 280.438 127.339C280.132 128.183 279.979 128.689 279.979 129.194C279.979 130.375 281.05 130.882 282.427 130.882C284.877 130.882 288.398 129.364 289.162 128.183C295.897 115.868 305.081 113.001 307.071 113.001C313.345 113.001 308.907 131.725 317.325 131.725C323.308 131.725 331.739 127.245 339.458 121.838C339.302 122.507 339.216 123.164 339.216 123.798C339.216 128.52 343.501 132.062 352.226 132.062C362.022 132.062 372.583 126.496 382.531 118.062V119.58C382.531 127.002 384.521 131.725 389.112 131.725C399.367 131.725 416.817 118.569 425.54 110.133C425.846 109.796 425.999 109.29 425.999 108.951C425.999 108.277 425.54 107.94 425.082 107.94H425.082ZM418.501 48.2229C420.031 48.2229 420.797 49.4058 420.797 51.5977C420.797 60.8749 407.174 87.1905 390.031 106.591C393.552 83.4801 407.939 48.2229 418.501 48.2229ZM382.838 114.35C373.501 123.291 363.553 129.533 354.675 129.533C351.308 129.533 349.317 127.002 349.317 123.46C349.317 115.699 359.113 103.217 384.828 102.71C383.909 106.927 383.144 110.808 382.837 114.35H382.838Z" fill="#F4F5F9"/>
<path fill-rule="evenodd" clip-rule="evenodd" d="M175.101 66.2268C176.533 64.6292 177.248 62.127 177.248 58.7241L177.248 58.7238V48.7623C177.248 45.3591 176.514 42.8474 175.045 41.2286C173.577 39.6102 171.298 38.8008 168.21 38.8008H143.354V83.6276H150.133V68.6853H160.584L168.492 83.6276H176.344L168.436 68.6853C171.448 68.6444 173.67 67.8255 175.101 66.2268ZM170.47 48.7626V58.7241C170.47 60.7166 169.715 61.712 168.21 61.712H150.132V45.7735H168.21C169.715 45.7735 170.47 46.7692 170.47 48.7626ZM220.403 83.6276L207.015 38.8008H196.338L182.95 83.6276H190.068L193.49 72.1715H209.807L213.23 83.6276H220.403ZM207.726 65.1994H195.571H195.571L201.373 45.7766H201.923L207.726 65.1994ZM255.322 38.8008H267.354V83.6276H260.575V45.7735L259.949 45.7523L251.872 73.6449L242.052 73.6636L234.034 45.771H233.46V83.6276H226.681V38.8008H238.657L246.734 66.6928L247.302 66.6939L255.322 38.8008ZM302.998 53.743H309.776V48.7617C309.776 45.3588 309.042 42.8468 307.573 41.2281C306.105 39.6102 303.825 38.8008 300.738 38.8008H284.92C281.832 38.8008 279.553 39.6099 278.084 41.2281C276.616 42.8465 275.882 45.3588 275.882 48.7617C275.882 51.6681 276.201 53.9394 276.842 55.5793C277.482 57.2204 278.47 58.5052 279.808 59.4396C281.144 60.3726 283.225 61.3591 286.05 62.3966L299.608 67.3774C300.286 67.6264 300.841 67.8965 301.274 68.1868C301.707 68.4781 302.037 68.758 302.264 69.027C302.489 69.2983 302.659 69.7025 302.771 70.2417C302.884 70.782 302.95 71.2591 302.969 71.6744C302.988 72.0896 302.998 72.7539 302.998 73.6658C302.998 75.6586 302.244 76.6551 300.738 76.6551H284.921C283.414 76.6551 282.66 75.6589 282.66 73.6658V68.685H275.882V73.6658C275.882 77.0701 276.616 79.5807 278.085 81.1994C279.554 82.8182 281.833 83.6287 284.921 83.6287H300.738C303.826 83.6287 306.105 82.8185 307.574 81.1994C309.042 79.581 309.776 77.0701 309.776 73.6658C309.776 70.7597 309.456 68.4873 308.816 66.8471C308.175 65.2066 307.187 63.9204 305.85 62.986C304.514 62.0527 302.434 61.0653 299.609 60.0275L286.051 55.0468C285.373 54.7978 284.817 54.5287 284.384 54.2388C283.951 53.9489 283.621 53.6673 283.395 53.3971C283.169 53.1284 282.999 52.7231 282.887 52.185C282.773 51.6447 282.707 51.1676 282.689 50.7523C282.67 50.3384 282.66 49.6744 282.66 48.7609C282.66 46.7692 283.413 45.7741 284.92 45.7741H300.738C302.243 45.7741 302.998 46.7689 302.998 48.7617V53.743ZM250.204 175.447L259.27 148.545H263.629L272.695 175.447H268.859L266.837 169.298H256.062L254.04 175.447H250.204H250.204ZM257.247 165.647H265.651L261.536 153.157H261.362L257.247 165.647ZM283.361 148.545V175.447H299.053V171.796H287.023V148.545H283.361ZM310.595 175.447V148.545H316.174L323.078 169.491H323.218L330.122 148.545H335.701V175.447H332.04V153.734H331.865L324.717 175.447H321.579L314.43 153.734H314.256V175.447H310.595ZM355.439 148.545L346.372 175.447H346.373H350.208L352.231 169.298H363.005L365.028 175.447H368.863L359.797 148.545H355.439ZM361.819 165.647H353.416L357.53 153.157H357.705L361.819 165.647ZM385.117 175.447V152.197H377.445V148.545H396.449V152.197H388.778V175.447H385.117ZM413.569 165.455V175.447H417.231V165.455L425.774 148.545H421.938L415.487 161.42H415.313L408.862 148.545H405.026L413.569 165.455Z" fill="#AF9475"/>
</svg>
